<?xml version="1.0" encoding="UTF-8"?>
<svg width="24px" height="24px" viewBox="0 0 24 24" version="1.1" xmlns="http://www.w3.org/2000/svg" xmlns:xlink="http://www.w3.org/1999/xlink">
    <title>公司图标</title>
    <g id="公司图标" stroke="none" stroke-width="1" fill="none" fill-rule="evenodd">
        <rect id="矩形" x="0" y="0" width="24" height="24"></rect>
        <g id="编组-6" transform="translate(2.000000, 1.500000)">
            <rect id="矩形" fill="#ADDEFF" opacity="0.578404018" x="4" y="9" width="8" height="11" rx="2"></rect>
            <rect id="矩形备份-10" fill="#ADDEFF" opacity="0.578404018" x="13" y="3" width="6" height="17" rx="2"></rect>
            <path d="M17.5481933,0 C18.8226361,0 19.8699704,0.960973058 19.9887763,2.18971844 L20,2.42307692 L20,18.5769231 C20,19.8364322 19.0276329,20.871494 17.7843186,20.9889078 L17.5481933,21 L2.45180675,21 C1.17736395,21 0.130029645,20.0390269 0.0112236816,18.8102816 L0,18.5769231 L0,8.55045915 C0,7.29095004 0.972367079,6.25588821 2.2156814,6.13847439 L2.45180675,6.12738223 L10.0916701,6.12738223 C11.3661129,6.12738223 12.4134472,7.08835528 12.5322532,8.31710067 L12.5434768,8.55045915 L12.5434768,14.2681753 C12.5434768,14.7142515 12.1775731,15.0758676 11.7262079,15.0758676 C11.3249944,15.0758676 10.991306,14.7901462 10.9221063,14.413359 L10.908939,14.2681753 L10.908939,8.55045915 C10.908939,8.15394702 10.6198299,7.8241687 10.2385752,7.75577985 L10.0916701,7.74276684 L2.45180675,7.74276684 C2.05059327,7.74276684 1.71690486,8.02848825 1.64770513,8.40527544 L1.63453783,8.55045915 L1.63453783,18.5769231 C1.63453783,18.9734352 1.92364697,19.3032135 2.30490163,19.3716024 L2.45180675,19.3846154 L17.5481933,19.3846154 C17.9494067,19.3846154 18.2830951,19.098894 18.3522949,18.7221068 L18.3654622,18.5769231 L18.3654622,2.42307692 C18.3654622,2.02656479 18.076353,1.69678648 17.6950984,1.62839762 L17.5481933,1.61538462 L10.778022,1.61538462 C10.3768086,1.61538462 10.0431202,1.90110603 9.97392043,2.27789321 L9.96075313,2.42307692 L9.96075313,3.51512508 C9.96075313,3.96120123 9.59484938,4.32281739 9.14348422,4.32281739 C8.74227074,4.32281739 8.40858232,4.03709598 8.3393826,3.6603088 L8.3262153,3.51512508 L8.3262153,2.42307692 C8.3262153,1.16356781 9.29858238,0.128505981 10.5418967,0.0110921646 L10.778022,0 L17.5481933,0 Z M8.38662871,12 C8.85283465,12 9.23076923,12.3357864 9.23076923,12.75 C9.23076923,13.1181898 8.93215425,13.4244126 8.53836404,13.4879165 L8.38662871,13.5 L3.92106359,13.5 C3.45485766,13.5 3.07692308,13.1642136 3.07692308,12.75 C3.07692308,12.3818102 3.37553806,12.0755874 3.76932827,12.0120835 L3.92106359,12 L8.38662871,12 Z M16.1893385,12 C16.5945711,12 16.9230769,12.3357864 16.9230769,12.75 C16.9230769,13.1181898 16.6635167,13.4244126 16.3212289,13.4879165 L16.1893385,13.5 L14.5798922,13.5 C14.1746597,13.5 13.8461538,13.1642136 13.8461538,12.75 C13.8461538,12.3818102 14.105714,12.0755874 14.4480018,12.0120835 L14.5798922,12 L16.1893385,12 Z M16.1893385,6 C16.5945711,6 16.9230769,6.33578644 16.9230769,6.75 C16.9230769,7.11818983 16.6635167,7.42441256 16.3212289,7.4879165 L16.1893385,7.5 L14.5798922,7.5 C14.1746597,7.5 13.8461538,7.16421356 13.8461538,6.75 C13.8461538,6.38181017 14.105714,6.07558744 14.4480018,6.0120835 L14.5798922,6 L16.1893385,6 Z" id="形状" fill="#4665F9" fill-rule="nonzero"></path>
        </g>
    </g>
</svg>