<?xml version="1.0" encoding="UTF-8"?>
<svg width="16px" height="16px" viewBox="0 0 16 16" version="1.1" xmlns="http://www.w3.org/2000/svg" xmlns:xlink="http://www.w3.org/1999/xlink">
    <title>兑现</title>
    <g id="我的企业" stroke="none" stroke-width="1" fill="none" fill-rule="evenodd">
        <g id="我的企业-申报记录" transform="translate(-320.000000, -225.000000)">
            <g id="兑现" transform="translate(320.000000, 225.000000)">
                <rect id="矩形" x="0" y="0" width="16" height="16"></rect>
                <path d="M13,5 C13.5522847,5 14,5.44771525 14,6 L14,11 C14,11.5522847 13.5522847,12 13,12 L12,12 L12,13 C12,13.5522847 11.5522847,14 11,14 L5,14 C4.44771525,14 4,13.5522847 4,13 L4,8 C4,7.44771525 4.44771525,7 5,7 L6,7 L6,6 C6,5.44771525 6.44771525,5 7,5 L13,5 Z" id="形状结合备份" fill="#CAE8FF"></path>
                <path d="M10.75,2 C11.4403559,2 12,2.55964406 12,3.25 L12,8.25 C12,8.94035594 11.4403559,9.5 10.75,9.5 L9.5,9.5 L9.5,10.75 C9.5,11.4403559 8.94035594,12 8.25,12 L3.25,12 C2.55964406,12 2,11.4403559 2,10.75 L2,5.75 C2,5.05964406 2.55964406,4.5 3.25,4.5 L4.5,4.5 L4.5,3.25 C4.5,2.55964406 5.05964406,2 5.75,2 L10.75,2 Z M11,3 L5.66666667,3 L5.66666667,5.66666667 L3,5.66666667 L3,11 L8.33333333,11 L8.33333333,8.33333333 L11,8.33333333 L11,3 Z" id="形状结合" fill="#4665F9" fill-rule="nonzero"></path>
            </g>
        </g>
    </g>
</svg>