<?xml version="1.0" encoding="UTF-8"?>
<svg width="14px" height="14px" viewBox="0 0 14 14" version="1.1" xmlns="http://www.w3.org/2000/svg" xmlns:xlink="http://www.w3.org/1999/xlink">
    <title>感叹号</title>
    <g id="控件" stroke="none" stroke-width="1" fill="none" fill-rule="evenodd">
        <g id="Message/_Icon/Warning" fill-rule="nonzero">
            <g id="感叹号">
                <rect id="矩形" fill="#000000" opacity="0" x="0" y="0" width="14" height="14"></rect>
                <path d="M7,14 C3.13403125,14 0,10.8659688 0,7 C0,3.13403125 3.13403125,0 7,0 C10.8659688,0 14,3.13403125 14,7 C14,10.8659688 10.8659688,14 7,14 Z M7.65625,3.28125 C7.65625,2.91878125 7.36246875,2.625 7,2.625 C6.63753125,2.625 6.34375,2.91878125 6.34375,3.28125 L6.34375,8.09375 C6.34375,8.45621875 6.63753125,8.75 7,8.75 C7.36246875,8.75 7.65625,8.45621875 7.65625,8.09375 L7.65625,3.28125 Z M7,10.0625 C6.63753125,10.0625 6.34375,10.3562813 6.34375,10.71875 C6.34375,11.0812187 6.63753125,11.375 7,11.375 C7.36246875,11.375 7.65625,11.0812187 7.65625,10.71875 C7.65625,10.3562813 7.36246875,10.0625 7,10.0625 Z" id="形状" fill="#FFB31D"></path>
            </g>
        </g>
    </g>
</svg>