<?xml version="1.0" encoding="UTF-8"?>
<svg width="141px" height="56px" viewBox="0 0 141 56" version="1.1" xmlns="http://www.w3.org/2000/svg" xmlns:xlink="http://www.w3.org/1999/xlink">
    <title>logo</title>
    <defs>
        <filter x="-1.5%" y="-35.8%" width="103.0%" height="171.7%" filterUnits="objectBoundingBox" id="filter-1">
            <feOffset dx="0" dy="3" in="SourceAlpha" result="shadowOffsetOuter1"></feOffset>
            <feGaussianBlur stdDeviation="4" in="shadowOffsetOuter1" result="shadowBlurOuter1"></feGaussianBlur>
            <feColorMatrix values="0 0 0 0 0.160784314   0 0 0 0 0.309803922   0 0 0 0 1  0 0 0 0.324054851 0" type="matrix" in="shadowBlurOuter1" result="shadowMatrixOuter1"></feColorMatrix>
            <feMerge>
                <feMergeNode in="shadowMatrixOuter1"></feMergeNode>
                <feMergeNode in="SourceGraphic"></feMergeNode>
            </feMerge>
        </filter>
        <polygon id="path-2" points="0 0 109 0 109 24 0 24"></polygon>
    </defs>
    <g id="控件" stroke="none" stroke-width="1" fill="none" fill-rule="evenodd">
        <g id="顶部" transform="translate(-24.000000, -2.000000)" filter="url(#filter-1)">
            <g id="logo" transform="translate(40.000000, 18.000000)">
                <mask id="mask-3" fill="white">
                    <use xlink:href="#path-2"></use>
                </mask>
                <g id="Clip-2"></g>
                <path d="M50.503254,13.8259159 L49.8098801,16.1842031 C49.7354501,16.4377401 49.9246029,16.6918392 50.1876262,16.6918392 L52.724401,16.6918392 C52.8990037,16.6918392 53.0529002,16.5765951 53.1021471,16.4085074 L54.6870019,11.0150848 C54.7614318,10.7615478 54.572279,10.5080109 54.3098154,10.5080109 L53.1642654,10.5080109 L51.4781187,10.5080109 L44.8197142,10.5080109 C44.570122,10.5080109 44.3837672,10.2775227 44.4341334,10.0324183 L44.5029671,9.69849152 C44.5410215,9.51522533 44.7016336,9.38367844 44.8879883,9.38367844 L53.892336,9.38367844 C54.6343972,9.38367844 55.2885975,8.89403167 55.5012546,8.17895624 L55.8269557,7.08104563 C55.9025049,6.82750867 55.713352,6.57284737 55.4503288,6.57284737 L45.6076646,6.57284737 C45.3558339,6.57284737 45.2030566,6.33561323 45.2472668,6.0865736 C45.2903579,5.84540429 45.105682,5.62166214 44.8600071,5.62166214 L42.3058839,5.62166214 C42.1195292,5.62166214 41.9583575,5.75320903 41.9208627,5.93703738 L41.8548271,6.25747213 C41.8167727,6.44130048 41.655601,6.57284737 41.4692463,6.57284737 L32.7654166,6.57284737 L31.3389354,6.57284737 L31.8258081,6.96636372 C31.9517235,7.06811581 32.0032089,7.23676567 31.9550812,7.39192355 L31.4973089,8.87098285 C31.4189616,9.12508198 31.6081145,9.38367844 31.8733762,9.38367844 L40.7266254,9.38367844 C40.9762176,9.38367844 41.1625724,9.61360442 41.1122062,9.85927106 L41.0433725,10.1926356 C41.0053181,10.376464 40.844706,10.5080109 40.6577917,10.5080109 L34.6894034,10.5080109 L32.1067393,10.5080109 L31.6422515,10.5080109 C31.4603738,10.5080109 31.3020002,10.6333739 31.2594688,10.8110185 L30.1088822,15.6422749 C30.049562,15.8907524 30.2375957,16.129673 30.4916649,16.129673 L33.0401919,16.129673 C33.2220696,16.129673 33.3804432,16.0043099 33.4229746,15.8261033 L33.9479018,13.6218495 C33.9904332,13.444205 34.1488067,13.3188419 34.3306845,13.3188419 L39.9157305,13.3188419 C40.1647631,13.3188419 40.3511178,13.5487679 40.3007517,13.7944346 L38.2945002,23.5244074 C38.244134,23.7695119 38.4304888,24 38.680081,24 L41.2342042,24 C41.420559,24 41.5817306,23.8684531 41.6192254,23.6846248 L43.6915125,13.633655 C43.729567,13.4503888 43.890179,13.3188419 44.0770934,13.3188419 L50.1260675,13.3188419 C50.3885311,13.3188419 50.577684,13.5723789 50.503254,13.8259159 L50.503254,13.8259159 Z M108.582136,4.32418252 L100.66122,4.32418252 C100.367977,4.32418252 100.165953,4.02792092 100.272282,3.75302164 L101.501215,0.571160873 C101.607544,0.296261595 101.40552,0 101.111717,0 L98.1630592,0 L96.6850927,0 L97.2463954,0.596458353 C97.3566413,0.713951092 97.3902187,0.884287454 97.3325775,1.03551017 L96.1775138,4.0549049 C96.1153956,4.21737094 95.9603798,4.32418252 95.787456,4.32418252 L92.0855443,4.32418252 L90.6590631,4.32418252 L91.1330645,4.70757987 C91.2668146,4.81551579 91.3210981,4.99428464 91.2701723,5.15899934 L90.8275099,6.59083669 C90.7435663,6.86067647 90.9444712,7.13501359 91.225962,7.13501359 L94.3911945,7.13501359 C94.6855567,7.13501359 94.8892597,7.43015085 94.7868486,7.70729879 L90.8252714,18.3682189 C90.7223006,18.6453668 90.9260037,18.9405041 91.2203658,18.9405041 L94.2378576,18.9405041 C94.4135795,18.9405041 94.5708338,18.8308817 94.632952,18.666167 L98.862589,7.4093507 C98.9241477,7.24407383 99.081402,7.13501359 99.2571239,7.13501359 L107.056601,7.13501359 C107.798663,7.13501359 108.453423,6.64480465 108.66552,5.93029139 L108.982267,4.86329992 C109.062293,4.59458447 108.861388,4.32418252 108.582136,4.32418252 L108.582136,4.32418252 Z M107.488631,20.6270027 L86.962188,20.6270027 C86.6980455,20.6270027 86.5004983,20.3841469 86.5525433,20.123864 L89.291902,6.51325775 C89.3445067,6.25353696 89.1463998,6.01068116 88.8822574,6.01068116 L86.7573656,6.01068116 L86.743375,6.01068116 L85.475827,6.01068116 L83.6911866,6.01068116 L82.2647054,6.01068116 L82.7521378,6.40475967 C82.8791724,6.50707392 82.9351348,6.67403729 82.8959611,6.83313033 L82.3934189,8.86255036 C82.3279429,9.12733065 82.5277286,9.38367844 82.7991462,9.38367844 L84.8445713,9.38367844 C85.1087138,9.38367844 85.306261,9.62653425 85.254216,9.88625504 L83.1612228,20.2902652 C83.1214895,20.485899 82.9502446,20.6270027 82.7515781,20.6270027 L77.242641,20.6270027 C76.9824159,20.6270027 76.7854283,20.3903307 76.8318771,20.1328586 L76.9829755,19.2856741 C77.0187915,19.0861051 77.1922749,18.9405041 77.3942991,18.9405041 L79.2516906,18.9405041 C79.4520359,18.9405041 79.6238405,18.7971517 79.6618949,18.5998314 L79.931074,17.1910428 C79.9803209,16.9318842 79.7827736,16.6918392 79.5197504,16.6918392 L77.9472074,16.6918392 C77.6869823,16.6918392 77.4899947,16.4551672 77.5364435,16.1976951 L79.377606,5.94265905 C79.4240548,5.68518692 79.2270672,5.44851494 78.9668421,5.44851494 L71.4885886,5.44851494 C71.2154922,5.44851494 71.0157065,5.18991849 71.0839806,4.92457603 L71.2999954,4.07739155 C71.3475634,3.8918767 71.5143313,3.7620163 71.705163,3.7620163 L78.6847917,3.7620163 C79.4850538,3.7620163 80.1739507,3.19422843 80.3306454,2.4060714 L80.4862208,1.62634686 C80.5377062,1.36662607 80.3395994,1.12433243 80.0760165,1.12433243 L72.6151114,1.12433243 C72.3313821,1.12433243 72.1232021,0.855054811 72.1937147,0.5790312 L72.202109,0.545863394 C72.2731812,0.269277616 72.0650012,0 71.7807123,0 L68.7828073,0 L67.8644646,0 L68.2914576,0.297385927 L68.1661018,0.805584184 C68.1202127,0.992785534 67.9528852,1.12433243 67.7609342,1.12433243 L49.6464699,1.12433243 C49.3554655,1.12433243 49.1461662,0.842687155 49.2295501,0.562166214 C49.3134937,0.282207439 49.1041944,0 48.81319,0 L46.3978535,0 L45.4795107,0 L45.9065037,0.297385927 L45.0726642,3.22683407 C44.9959957,3.49498735 45.1963411,3.7620163 45.4739145,3.7620163 L48.9855541,3.7620163 C49.1724685,3.7620163 49.3364383,3.88625504 49.3873641,4.06671039 L49.7125055,5.2129673 C49.7634313,5.39286049 49.9274011,5.51766139 50.1143154,5.51766139 L52.6029627,5.51766139 C52.8805361,5.51766139 53.0808814,5.25063244 53.0047726,4.98247915 L52.8105831,4.29663637 C52.7344743,4.02848309 52.9348196,3.7620163 53.212393,3.7620163 L66.9041501,3.7620163 C67.1755676,3.7620163 67.3747937,4.01780193 67.3098774,4.28258222 L67.1011377,5.1297667 C67.0546889,5.31696805 66.8873613,5.44851494 66.6954104,5.44851494 L59.6626175,5.44851494 C59.4600337,5.44851494 59.2871099,5.59411599 59.251294,5.793685 L58.0671299,12.4109435 C58.031314,12.6110747 57.8583902,12.7566757 57.6558064,12.7566757 L55.848781,12.7566757 L56.1800783,13.2086574 C56.2494717,13.3036634 56.2763336,13.4234049 56.253389,13.5392111 L56.0619977,14.5033262 C56.0105123,14.7630469 56.2080595,15.0053406 56.4716423,15.0053406 L57.1034576,15.0053406 C57.3636827,15.0053406 57.5606703,15.2420126 57.5147812,15.4989225 L56.6591163,20.2812705 C56.6233004,20.4814017 56.449817,20.6270027 56.2477928,20.6270027 L54.0311227,20.6270027 L52.6046415,20.6270027 L53.0920739,21.0210812 C53.2191085,21.1233955 53.2750709,21.2903588 53.2358972,21.4494519 L52.733355,23.4788719 C52.667879,23.7436522 52.8676648,24 53.1390823,24 L69.4286132,24 C70.2411871,24 70.9373591,23.4153471 71.0811825,22.6114495 L71.348123,21.1205847 C71.3940122,20.8636747 71.1970246,20.6270027 70.9367995,20.6270027 L60.4544852,20.6270027 C60.1942601,20.6270027 59.9972726,20.3903307 60.0431617,20.1328586 L60.8988266,15.3505106 C60.9346425,15.1509416 61.1081259,15.0053406 61.3101501,15.0053406 L73.0079674,15.0053406 C73.2010376,15.0053406 73.3694844,14.871545 73.4142543,14.6826572 L73.7477901,13.2733065 C73.8104679,13.0096505 73.6112419,12.7566757 73.3415032,12.7566757 L71.6318523,12.7566757 L71.6318523,12.7566757 L61.8624988,12.7566757 C61.6022737,12.7566757 61.4052862,12.5200037 61.4517349,12.2625316 L62.2066675,8.04234985 C62.2424834,7.84278085 62.4154072,7.6971798 62.617991,7.6971798 L75.200014,7.6971798 C75.460239,7.6971798 75.6572266,7.93385178 75.6107779,8.19076174 L75.4596794,9.03794622 C75.4238635,9.23807739 75.2503801,9.38367844 75.0483559,9.38367844 L63.6835148,9.38367844 L64.0148121,9.83566008 C64.0842055,9.93066617 64.1110674,10.0504076 64.0881229,10.1662138 L63.8967315,11.1303289 C63.8452461,11.3900497 64.0427933,11.6323433 64.3063762,11.6323433 L74.4954475,11.6323433 C74.7556726,11.6323433 74.9526602,11.8690153 74.9067711,12.1259252 L74.1512789,16.346107 C74.1154629,16.5462382 73.9425392,16.6918392 73.740515,16.6918392 L64.2431387,16.6918392 L64.574436,17.1438209 C64.6438293,17.2388269 64.6706913,17.3585684 64.6477467,17.4743746 L64.4563554,18.4384896 C64.40487,18.6982104 64.6024172,18.9405041 64.866,18.9405041 L73.1876066,18.9405041 C73.4478317,18.9405041 73.6448193,19.1771761 73.5989301,19.434086 L72.8702999,23.5058559 C72.8244107,23.763328 73.0208387,24 73.2816234,24 L82.4146846,24 L85.7724277,24 L105.875795,24 C106.646957,24 107.319065,23.4721259 107.50486,22.7199475 L107.894358,21.1475686 C107.959834,20.8833505 107.760608,20.6270027 107.488631,20.6270027 L107.488631,20.6270027 Z M14.6073016,9.38367844 L13.1668299,9.38367844 C12.903247,9.38367844 12.7051402,9.1430713 12.7543871,8.88335051 L13.7281326,3.71648084 C13.7656274,3.51691183 13.9385511,3.37299728 14.1405753,3.37299728 L15.7763558,3.37299728 C16.5475175,3.37299728 17.2196257,2.84512321 17.4054209,2.09350698 L17.7943594,0.523376745 C17.8598354,0.257472126 17.6594901,0 17.3869533,0 L6.4630958,0 L5.03661462,0 L5.52348736,0.39351635 C5.65052198,0.496392767 5.70704398,0.664480465 5.66731069,0.823573503 L5.16588772,2.84962054 C5.10041173,3.11552516 5.30075707,3.37299728 5.57329388,3.37299728 L9.92828666,3.37299728 C10.1913099,3.37299728 10.3894167,3.61360442 10.3407294,3.87332521 L7.24824806,20.2835192 C7.21075326,20.482526 7.03726987,20.6270027 6.83580528,20.6270027 L6.5615896,20.6270027 C6.29744714,20.6270027 6.09878068,20.3841469 6.14970645,20.123864 L7.5896186,12.7853462 C7.64054437,12.5250632 7.44187791,12.2822074 7.17773545,12.2822074 L5.03829349,12.2822074 L3.35774308,12.2822074 L4.02593395,12.872482 C4.13841834,12.9714232 4.18990374,13.1237703 4.16024367,13.27162 L2.76286293,20.2880165 C2.72312964,20.4847747 2.55132511,20.6270027 2.35097978,20.6270027 L1.42648118,20.6270027 L0,20.6270027 L0.486872746,21.0199569 C0.613907359,21.1233955 0.670429368,21.290921 0.630696075,21.4505762 L0.129273108,23.4766233 C0.0637971185,23.7425279 0.264142455,24 0.536679269,24 L11.8589889,24 C12.6301506,24 13.3022588,23.4721259 13.4880539,22.7199475 L13.8769925,21.1503795 C13.9424685,20.8844748 13.7421232,20.6270027 13.4695864,20.6270027 L11.048094,20.6270027 C10.7845111,20.6270027 10.5864043,20.3863956 10.6356512,20.1266748 L11.8539523,13.6617633 C11.8914471,13.4627565 12.0643709,13.3188419 12.2663951,13.3188419 L13.9508629,13.3188419 C14.1489697,13.3188419 14.3202146,13.1794247 14.3616268,12.9849152 L15.0175059,9.89300103 C15.0729087,9.63046941 14.8742422,9.38367844 14.6073016,9.38367844 L14.6073016,9.38367844 Z M33.1851345,3.7620163 L34.6535874,3.7620163 L35.5417105,3.7620163 C35.7358999,3.7620163 35.9065852,3.89131453 35.9603091,4.07907805 L36.2781755,5.20003748 C36.3313397,5.38780099 36.502025,5.51766139 36.6962145,5.51766139 L39.1496054,5.51766139 C39.4383713,5.51766139 39.647111,5.23995128 39.5676444,4.96055467 L39.3857667,4.31856085 C39.3063001,4.03972641 39.5150398,3.7620163 39.8043653,3.7620163 L41.189994,3.7620163 C41.9902561,3.7620163 42.679153,3.19422843 42.8358477,2.4060714 L42.9869461,1.64714701 C43.04067,1.37674506 42.8347284,1.12433243 42.5605128,1.12433243 L37.3347453,1.12433243 C37.0437409,1.12433243 36.8344416,0.842687155 36.9178255,0.562166214 C37.0017691,0.282207439 36.7924698,0 36.5014654,0 L34.0861288,0 L33.1677861,0 L33.5947791,0.297385927 L32.7670954,3.20490958 C32.6876289,3.48374403 32.8963686,3.7620163 33.1851345,3.7620163 L33.1851345,3.7620163 Z M85.7444465,3.9351635 L88.8067082,3.9351635 C89.0714102,3.9351635 89.2700767,3.69118336 89.2169124,3.43033824 L88.5901337,0.336737562 C88.5504004,0.14110372 88.3785959,0 88.1799294,0 L85.1965747,0 L84.0448688,0 L84.6431067,0.571160873 C84.705225,0.630750492 84.7477564,0.707767263 84.7651047,0.792092195 L85.3336826,3.59842593 C85.3734159,3.79405978 85.5452204,3.9351635 85.7444465,3.9351635 L85.7444465,3.9351635 Z M101.995923,18.9405041 L105.070496,18.9405041 C105.323446,18.9405041 105.518195,18.7161998 105.484618,18.4649115 L104.240015,9.1846716 C104.212033,8.9766701 104.035192,8.82151223 103.826453,8.82151223 L100.751879,8.82151223 C100.498929,8.82151223 100.30418,9.04525438 100.337758,9.29710484 L101.582361,18.5767825 C101.610342,18.784784 101.787183,18.9405041 101.995923,18.9405041 L101.995923,18.9405041 Z M49.0040217,17.2540054 L45.9451178,17.2540054 C45.6792964,17.2540054 45.4800704,17.4985477 45.532675,17.7605172 L46.7196372,23.6610138 C46.7593705,23.8577719 46.9317346,24 47.13208,24 L50.1909839,24 C50.4568052,24 50.6560313,23.7548955 50.6034267,23.4934882 L49.4164645,17.5929917 C49.3767312,17.3956713 49.2043671,17.2540054 49.0040217,17.2540054 L49.0040217,17.2540054 Z M25.6430839,7.31771761 C25.6660285,7.2845498 25.6816979,7.24688466 25.6900923,7.20753303 L26.1025351,5.26581092 C26.1439472,5.07017708 25.9956469,4.88634873 25.7969804,4.88634873 L22.3340281,4.88634873 C22.2053146,4.88634873 22.0894725,4.96617633 22.0430237,5.08704207 L21.7570559,5.82741497 C21.7279555,5.90386958 21.7290747,5.98819451 21.7609733,6.06296262 L23.3542224,9.85140073 C23.4510373,10.0807645 23.7621881,10.1111215 23.9009748,9.90480652 L25.6430839,7.31771761 Z M36.7896717,17.7442144 L34.2473005,21.503982 C33.1918499,23.0651176 31.4351907,24 29.5565334,24 C27.2503236,24 25.1741191,22.5973953 24.3044636,20.452169 L23.2462149,17.8420313 C23.1516385,17.6092945 22.8376895,17.5766888 22.6977836,17.7846903 L18.6091718,23.8617071 C18.5509709,23.9482807 18.454156,24 18.3500659,24 L14.9973595,24 C14.746648,24 14.597788,23.7183547 14.7382536,23.5097911 L21.3837868,13.6420875 C21.4425473,13.5555139 21.4537398,13.4447672 21.4145661,13.3475124 L20.1005693,10.1263 L19.8140419,10.8694837 C19.7675931,10.9903495 19.651751,11.0701771 19.5230375,11.0701771 L16.8351642,11.0701771 C16.6157916,11.0701771 16.4646932,10.8486836 16.5441598,10.6429308 L20.3109879,0.867984634 C20.3619136,0.735875574 20.318263,0.585777195 20.2046593,0.502014429 L19.5258356,0 L21.463813,0 L23.546733,0 C23.7666651,0 23.9177636,0.221493488 23.838297,0.427246322 L23.5847874,1.08610513 C23.5053208,1.29185796 23.6564192,1.51335145 23.8757918,1.51335145 L31.5146573,1.51335145 C31.7178007,1.51335145 31.8666607,1.70505013 31.8179734,1.90293263 L31.396017,3.60629626 C31.2566707,4.17127331 30.8408702,4.60638996 30.315943,4.78853181 C30.2040182,4.82732128 30.1161573,4.91614354 30.0960108,5.03363628 L29.6942009,7.33626909 C29.6863662,7.37955589 29.6695775,7.42115619 29.644954,7.45769699 L25.2502279,13.9906306 C25.1909078,14.0788907 25.1797153,14.1907617 25.2211275,14.2885787 L27.2307367,19.065305 C27.6286293,20.0119929 28.5525683,20.6270027 29.575001,20.6270027 L29.575001,20.6270027 C30.4183542,20.6270027 31.2068642,20.2076267 31.6808656,19.5066055 L33.1112641,17.391174 C33.169465,17.3051626 33.2662799,17.2540054 33.3698103,17.2540054 L36.5316851,17.2540054 C36.7823965,17.2540054 36.9306969,17.5356507 36.7896717,17.7442144 L36.7896717,17.7442144 Z M25.6900923,7.20753303 L26.1025351,5.26581092 C26.1439472,5.07017708 25.9956469,4.88634873 25.7969804,4.88634873 L22.3340281,4.88634873 C22.2053146,4.88634873 22.0894725,4.96617633 22.0430237,5.08704207 L21.7570559,5.82741497 C21.7279555,5.90386958 21.7290747,5.98819451 21.7609733,6.06296262 L23.3542224,9.85140073 C23.4510373,10.0807645 23.7621881,10.1111215 23.9009748,9.90480652 L25.6430839,7.31771761 C25.6660285,7.2845498 25.6816979,7.24688466 25.6900923,7.20753303 L25.6900923,7.20753303 Z M25.6430839,7.31771761 L23.9009748,9.90480652 C23.7621881,10.1111215 23.4510373,10.0807645 23.3542224,9.85140073 L21.7609733,6.06296262 C21.7290747,5.98819451 21.7279555,5.90386958 21.7570559,5.82741497 L22.0430237,5.08704207 C22.0894725,4.96617633 22.2053146,4.88634873 22.3340281,4.88634873 L25.7969804,4.88634873 C25.9956469,4.88634873 26.1439472,5.07017708 26.1025351,5.26581092 L25.6900923,7.20753303 C25.6816979,7.24688466 25.6660285,7.2845498 25.6430839,7.31771761 L25.6430839,7.31771761 Z" id="Fill-1" fill="#FFFFFF" mask="url(#mask-3)"></path>
            </g>
        </g>
    </g>
</svg>