<?xml version="1.0" encoding="UTF-8"?>
<svg width="24px" height="24px" viewBox="0 0 24 24" version="1.1" xmlns="http://www.w3.org/2000/svg" xmlns:xlink="http://www.w3.org/1999/xlink">
    <title>我的图标</title>
    <g id="我的图标" stroke="none" stroke-width="1" fill="none" fill-rule="evenodd">
        <rect id="矩形" x="0" y="0" width="24" height="24"></rect>
        <path d="M7.4912121,17 L16.5087879,17 C17.3040762,17 18.0237955,17.471198 18.3418667,18.2001111 L18.9090909,19.5 C19.3035409,20.4039479 18.8905112,21.4565073 17.9865634,21.8509573 C17.7612856,21.9492603 17.5181402,22 17.2723485,22 L6.72765149,22 C5.74138959,22 4.94186635,21.2004768 4.94186635,20.2142149 C4.94186635,19.9684232 4.99260608,19.7252777 5.09090909,19.5 L5.65813334,18.2001111 C5.9762045,17.471198 6.69592377,17 7.4912121,17 Z" id="矩形备份-5" fill="#CAE8FF"></path>
        <circle id="椭圆形备份" fill="#CAE8FF" cx="12" cy="9" r="4"></circle>
        <path d="M12.1897367,16.56921 L12.9122515,18.7367544 C12.947181,18.8415431 12.890549,18.9548071 12.7857604,18.9897367 C12.7653671,18.9965344 12.7440112,19 12.7225148,19 L11.2774852,19 C11.1670282,19 11.0774852,18.9104569 11.0774852,18.8 C11.0774852,18.7785036 11.0809508,18.7571477 11.0877485,18.7367544 L11.8102633,16.56921 C11.8451929,16.4644213 11.9584569,16.4077893 12.0632456,16.4427189 C12.1229666,16.4626259 12.1698297,16.509489 12.1897367,16.56921 Z" id="三角形" fill="#4665F9" transform="translate(12.000000, 17.500000) rotate(180.000000) translate(-12.000000, -17.500000) "></path>
        <path d="M12,1 C15.3137085,1 18,3.6862915 18,7 C18,10.3137085 15.3137085,13 12,13 C8.6862915,13 6,10.3137085 6,7 C6,3.6862915 8.6862915,1 12,1 Z M12,2.5 C9.51471863,2.5 7.5,4.51471863 7.5,7 C7.5,9.48528137 9.51471863,11.5 12,11.5 C14.4852814,11.5 16.5,9.48528137 16.5,7 C16.5,4.51471863 14.4852814,2.5 12,2.5 Z M17.8377223,14 C19.1290136,14 20.2754301,14.8262903 20.6837722,16.0513167 L21.6837722,19.0513167 C22.2077156,20.6231467 21.3582356,22.3221066 19.7864056,22.8460499 C19.4805062,22.9480164 19.1601686,23 18.8377223,23 L5.16227766,23 C3.50542341,23 2.16227766,21.6568542 2.16227766,20 C2.16227766,19.6775537 2.2142613,19.3572161 2.31622777,19.0513167 L3.31622777,16.0513167 C3.72456991,14.8262903 4.87098644,14 6.16227766,14 L17.8377223,14 Z M17.8377223,15.5 L6.16227766,15.5 C5.51663205,15.5 4.94342378,15.9131451 4.73925271,16.5256584 L3.73925271,19.5256584 C3.68826948,19.6786081 3.66227766,19.8387769 3.66227766,20 C3.66227766,20.8284271 4.33385054,21.5 5.16227766,21.5 L18.8377223,21.5 C18.9989455,21.5 19.1591143,21.4740082 19.312064,21.4230249 C20.097979,21.1610533 20.5227189,20.3115733 20.2607473,19.5256584 L19.2607473,16.5256584 C19.0565762,15.9131451 18.483368,15.5 17.8377223,15.5 Z" id="形状结合" fill="#4665F9" fill-rule="nonzero"></path>
    </g>
</svg>