<svg t="1662441209522" viewBox="0 0 1024 1024" version="1.1" xmlns="http://www.w3.org/2000/svg" p-id="1561" xmlns:xlink="http://www.w3.org/1999/xlink" width="1em" height="1em" fill="currentColor"><path d="M512 416h0.768c1.28 0 2.624 0.128 3.968 0.32L512 416a32.128 32.128 0 0 1 18.176 5.696l1.152 0.832c0.896 0.64 1.728 1.28 2.56 2.112l0.768 0.704 160 160a32 32 0 0 1-40.832 48.96l-4.48-3.648L544 525.248V896a32 32 0 0 1-63.488 5.76L480 896V525.248L374.656 630.656a32 32 0 0 1-40.832 3.648l-4.48-3.648a32 32 0 0 1-3.648-40.832l3.648-4.48 160-160 0.832-0.704a32.192 32.192 0 0 1 2.496-2.112l-3.328 2.816A32.128 32.128 0 0 1 512 416z m0-320c136.64 0 256.64 88.832 306.432 219.456l3.136 8.832 1.6 0.32c93.44 20.032 163.264 105.152 168.512 207.104l0.32 12.288c0 114.24-81.024 209.92-188.16 222.592l-11.52 1.088-11.52 0.32h-59.712a32 32 0 0 1-5.76-63.488l5.76-0.512h58.752l9.536-0.256C866.496 698.88 928 629.376 928 544c0-83.392-58.88-152-133.76-159.232a32 32 0 0 1-27.712-22.912C731.904 242.432 629.12 160 512 160c-117.056 0-219.904 82.432-254.464 201.728a32 32 0 0 1-27.648 22.912C154.816 391.936 96 460.608 96 544c0 85.12 60.992 154.048 137.152 159.616L243.2 704h59.712a32 32 0 0 1 5.76 63.488l-5.76 0.512H243.2C126.08 768 32 667.264 32 544c0-103.04 65.92-191.232 157.248-216.64l13.12-3.2 3.2-8.832c48-125.824 161.28-212.928 291.84-219.008L512 96z" p-id="1562"></path></svg>